<?xml version="1.0" standalone="no"?>
<!DOCTYPE svg PUBLIC "-//W3C//DTD SVG 20010904//EN"
 "http://www.w3.org/TR/2001/REC-SVG-20010904/DTD/svg10.dtd">
<svg version="1.0" xmlns="http://www.w3.org/2000/svg"
 width="700.000000pt" height="700.000000pt" viewBox="0 0 700.000000 700.000000"
 preserveAspectRatio="xMidYMid meet">
<metadata>
Created by potrace 1.14, written by Peter Selinger 2001-2017
</metadata>
<g transform="translate(0.000000,700.000000) scale(0.100000,-0.100000)"
fill="#000000" stroke="none">
<path d="M3280 6994 c-19 -2 -84 -9 -145 -14 -578 -56 -1180 -283 -1660 -625
-237 -169 -531 -446 -709 -670 -416 -521 -673 -1147 -748 -1820 -17 -155 -17
-575 0 -730 52 -469 198 -931 418 -1327 290 -523 731 -983 1239 -1294 439
-269 920 -432 1460 -496 145 -17 576 -17 730 0 822 91 1556 447 2131 1034 203
206 348 390 487 618 274 449 433 916 499 1465 16 136 16 592 0 730 -86 725
-352 1347 -803 1885 -122 145 -351 370 -494 484 -510 407 -1117 661 -1775 742
-117 15 -553 27 -630 18z m-1011 -2004 c14 -10 299 -292 634 -627 334 -335
607 -606 607 -602 0 16 1197 1212 1234 1233 23 13 54 27 69 30 37 9 104 -10
145 -40 67 -52 62 67 65 -1547 l2 -1462 -1525 0 -1525 0 0 1455 0 1455 28 47
c29 50 69 77 127 88 44 8 105 -5 139 -30z"/>
<path d="M4208 3945 c-236 -237 -428 -438 -428 -446 0 -7 196 -209 435 -449
l435 -435 0 883 c0 485 -3 881 -7 881 -5 -1 -200 -196 -435 -434z"/>
<path d="M2360 3493 l0 -868 435 435 435 435 -432 432 c-238 238 -434 433
-435 433 -2 0 -3 -390 -3 -867z"/>
<path d="M3066 2780 l-431 -430 870 0 870 0 -430 430 c-236 237 -434 430 -439
430 -5 0 -203 -193 -440 -430z"/>
</g>
</svg>
